<?xml version="1.0" standalone="no"?>
<svg xmlns="http://www.w3.org/2000/svg" viewBox="0 0 220.104 29" width="220.104" height="29"><g fill="#ffffff" color="#ffffff" transform="translate(0, 0) scale(0.29)"><svg width="100.0" height="100.0" x="0.0" y="0.0" viewBox="0 0 100 100"><path fill-rule="evenodd" clip-rule="evenodd" d="M34.457,44.069c5.786,5.797,14.198,7.239,21.08,4.343l1.617,1.095l3.041-0.42  l-2.824,3.725l3.477,3.483l6.436-0.438l-1.235,4.891l2.989,3.098l5.283-0.233l-0.977,4.083l3.79,3.8l4.119-1.755l2.211,1.771  l-1.079,2.443l0.259,0.188l12.912,0.767l0.985-4.671L65.053,38.241c2.978-6.876,1.515-14.655-4.268-20.447  c-7.512-7.524-19.499-7.716-26.754-0.472C26.735,24.603,26.948,36.549,34.457,44.069z M37.786,29.181  c-2.397-2.393-2.421-6.17-0.106-8.479c2.331-2.32,6.1-2.289,8.488,0.109c2.397,2.403,2.462,6.206,0.14,8.531  C43.99,31.656,40.173,31.588,37.786,29.181z"></path><g><path d="M31.167,47.354c-4.492-4.494-7.021-10.416-7.123-16.669c-0.034-1.987,0.265-3.912,0.708-5.786   c-3.955,4.806-5.491,11.5-3.404,18.033c2.479,7.8,9.304,12.937,16.746,13.518l0.928,1.708l2.896,1.022l-4.209,2.024l1.489,4.681   l5.921,2.56l-3.336,3.786l1.24,4.116l4.8,2.215l-2.745,3.182l1.634,5.116l4.474,0.328l1.151,2.59l-2.081,1.67l0.14,0.28   l11.124,6.606l3.021-3.694L51.973,54.208c-1.208,0.193-2.432,0.303-3.678,0.303C41.857,54.511,35.772,51.967,31.167,47.354z"></path></g><g><path d="M23.907,1.448c-11.235,0-20.374,9.139-20.374,20.374c0,8.718,5.574,16.015,13.29,18.906   c-0.081-0.634-0.165-1.262-0.223-1.92c-0.062-0.738-0.054-1.443-0.052-2.149c-5.504-2.724-9.346-8.292-9.346-14.836   c0-9.211,7.494-16.705,16.705-16.705c9.211,0,16.705,7.493,16.705,16.705c0,1.11-0.14,2.18-0.358,3.228   c0.141,0.716,0.566,1.422,1.697,1.64c1.022,0.197,1.609-0.395,1.951-1.069c0.239-1.23,0.379-2.497,0.379-3.799   C44.281,10.587,35.143,1.448,23.907,1.448z"></path></g></svg></g><line x1="41" y1="1" x2="41" y2="28" stroke="#b31616" stroke-linecap="round"></line><path fill="#b31616" fill-rule="nonzero" d="M21.77 0L23.52 0L23.52 10.20Q23.52 13.54 21.88 15.24Q20.23 16.94 17.23 16.94L17.23 16.94Q15.24 16.94 13.84 16.18Q12.43 15.41 11.76 13.99L11.76 13.99Q11.06 15.43 9.67 16.19Q8.28 16.94 6.31 16.94L6.31 16.94Q3.29 16.94 1.64 15.24Q0 13.54 0 10.20L0 10.20L0 0L1.78 0L1.78 10.13Q1.78 15.36 6.31 15.36L6.31 15.36Q8.50 15.36 9.70 14.08Q10.90 12.79 10.90 10.13L10.90 10.13L10.90 0L12.65 0L12.65 10.13Q12.65 12.82 13.84 14.09Q15.02 15.36 17.23 15.36L17.23 15.36Q19.42 15.36 20.59 14.08Q21.77 12.79 21.77 10.13L21.77 10.13L21.77 0ZM38.30 4.18L40.01 4.18L40.01 16.80L38.38 16.80L38.38 14.30Q37.61 15.58 36.35 16.25Q35.09 16.92 33.50 16.92L33.50 16.92Q31.73 16.92 30.29 16.10Q28.85 15.29 28.03 13.82Q27.22 12.36 27.22 10.49L27.22 10.49Q27.22 8.62 28.03 7.15Q28.85 5.69 30.29 4.88Q31.73 4.08 33.50 4.08L33.50 4.08Q35.04 4.08 36.28 4.72Q37.51 5.35 38.30 6.58L38.30 6.58L38.30 4.18ZM33.65 15.41Q34.97 15.41 36.04 14.80Q37.10 14.18 37.72 13.06Q38.33 11.93 38.33 10.49L38.33 10.49Q38.33 9.05 37.72 7.92Q37.10 6.79 36.04 6.18Q34.97 5.57 33.65 5.57L33.65 5.57Q32.30 5.57 31.24 6.18Q30.17 6.79 29.56 7.92Q28.94 9.05 28.94 10.49L28.94 10.49Q28.94 11.93 29.56 13.06Q30.17 14.18 31.24 14.80Q32.30 15.41 33.65 15.41L33.65 15.41ZM45.70 15.38L53.78 15.38L53.78 16.80L43.51 16.80L43.51 15.67L47.11 11.11L44.50 11.11L44.50 9.74L48.19 9.74L51.46 5.62L43.66 5.62L43.66 4.18L53.64 4.18L53.64 5.30L50.14 9.74L52.80 9.74L52.80 11.11L49.06 11.11L45.70 15.38ZM66.86 4.18L68.57 4.18L68.57 16.80L66.94 16.80L66.94 14.30Q66.17 15.58 64.91 16.25Q63.65 16.92 62.06 16.92L62.06 16.92Q60.29 16.92 58.85 16.10Q57.41 15.29 56.59 13.82Q55.78 12.36 55.78 10.49L55.78 10.49Q55.78 8.62 56.59 7.15Q57.41 5.69 58.85 4.88Q60.29 4.08 62.06 4.08L62.06 4.08Q63.60 4.08 64.84 4.72Q66.07 5.35 66.86 6.58L66.86 6.58L66.86 4.18ZM62.21 15.41Q63.53 15.41 64.60 14.80Q65.66 14.18 66.28 13.06Q66.89 11.93 66.89 10.49L66.89 10.49Q66.89 9.05 66.28 7.92Q65.66 6.79 64.60 6.18Q63.53 5.57 62.21 5.57L62.21 5.57Q60.86 5.57 59.80 6.18Q58.73 6.79 58.12 7.92Q57.50 9.05 57.50 10.49L57.50 10.49Q57.50 11.93 58.12 13.06Q58.73 14.18 59.80 14.80Q60.86 15.41 62.21 15.41L62.21 15.41ZM83.14 4.18L84.84 4.18L84.84 16.80L83.21 16.80L83.21 14.30Q82.44 15.58 81.18 16.25Q79.92 16.92 78.34 16.92L78.34 16.92Q76.56 16.92 75.12 16.10Q73.68 15.29 72.86 13.82Q72.05 12.36 72.05 10.49L72.05 10.49Q72.05 8.62 72.86 7.15Q73.68 5.69 75.12 4.88Q76.56 4.08 78.34 4.08L78.34 4.08Q79.87 4.08 81.11 4.72Q82.34 5.35 83.14 6.58L83.14 6.58L83.14 4.18ZM78.48 15.41Q79.80 15.41 80.87 14.80Q81.94 14.18 82.55 13.06Q83.16 11.93 83.16 10.49L83.16 10.49Q83.16 9.05 82.55 7.92Q81.94 6.79 80.87 6.18Q79.80 5.57 78.48 5.57L78.48 5.57Q77.14 5.57 76.07 6.18Q75 6.79 74.39 7.92Q73.78 9.05 73.78 10.49L73.78 10.49Q73.78 11.93 74.39 13.06Q75 14.18 76.07 14.80Q77.14 15.41 78.48 15.41L78.48 15.41ZM103.13 1.54L99.72 1.54L99.72 15.26L103.13 15.26L103.13 16.80L94.56 16.80L94.56 15.26L97.97 15.26L97.97 1.54L94.56 1.54L94.56 0L103.13 0L103.13 1.54ZM122.30 4.08Q124.68 4.08 126.04 5.45Q127.39 6.82 127.39 9.48L127.39 9.48L127.39 16.80L125.69 16.80L125.69 9.65Q125.69 7.68 124.74 6.65Q123.79 5.62 122.06 5.62L122.06 5.62Q120.10 5.62 118.97 6.83Q117.84 8.04 117.84 10.18L117.84 10.18L117.84 16.80L116.14 16.80L116.14 9.65Q116.14 7.68 115.19 6.65Q114.24 5.62 112.49 5.62L112.49 5.62Q110.54 5.62 109.40 6.83Q108.26 8.04 108.26 10.18L108.26 10.18L108.26 16.80L106.56 16.80L106.56 4.18L108.19 4.18L108.19 6.48Q108.86 5.33 110.06 4.70Q111.26 4.08 112.82 4.08L112.82 4.08Q114.41 4.08 115.57 4.75Q116.74 5.42 117.31 6.74L117.31 6.74Q118.01 5.50 119.32 4.79Q120.62 4.08 122.30 4.08L122.30 4.08ZM147.77 4.08Q150.14 4.08 151.50 5.45Q152.86 6.82 152.86 9.48L152.86 9.48L152.86 16.80L151.15 16.80L151.15 9.65Q151.15 7.68 150.20 6.65Q149.26 5.62 147.53 5.62L147.53 5.62Q145.56 5.62 144.43 6.83Q143.30 8.04 143.30 10.18L143.30 10.18L143.30 16.80L141.60 16.80L141.60 9.65Q141.60 7.68 140.65 6.65Q139.70 5.62 137.95 5.62L137.95 5.62Q136.01 5.62 134.87 6.83Q133.73 8.04 133.73 10.18L133.73 10.18L133.73 16.80L132.02 16.80L132.02 4.18L133.66 4.18L133.66 6.48Q134.33 5.33 135.53 4.70Q136.73 4.08 138.29 4.08L138.29 4.08Q139.87 4.08 141.04 4.75Q142.20 5.42 142.78 6.74L142.78 6.74Q143.47 5.50 144.78 4.79Q146.09 4.08 147.77 4.08L147.77 4.08ZM162.70 16.92Q160.87 16.92 159.41 16.09Q157.94 15.26 157.10 13.80Q156.26 12.34 156.26 10.49L156.26 10.49Q156.26 8.64 157.10 7.18Q157.94 5.71 159.41 4.90Q160.87 4.08 162.70 4.08L162.70 4.08Q164.52 4.08 165.98 4.90Q167.45 5.71 168.28 7.18Q169.10 8.64 169.10 10.49L169.10 10.49Q169.10 12.34 168.28 13.80Q167.45 15.26 165.98 16.09Q164.52 16.92 162.70 16.92L162.70 16.92ZM162.70 15.41Q164.04 15.41 165.11 14.80Q166.18 14.18 166.78 13.06Q167.38 11.93 167.38 10.49L167.38 10.49Q167.38 9.05 166.78 7.92Q166.18 6.79 165.11 6.18Q164.04 5.57 162.70 5.57L162.70 5.57Q161.35 5.57 160.28 6.18Q159.22 6.79 158.60 7.92Q157.99 9.05 157.99 10.49L157.99 10.49Q157.99 11.93 158.60 13.06Q159.22 14.18 160.28 14.80Q161.35 15.41 162.70 15.41L162.70 15.41Z" transform="translate(51, 6.028)"></path></svg>